<?xml version="1.0" encoding="utf-8"?>
<!-- Generator: Adobe Illustrator 19.2.0, SVG Export Plug-In . SVG Version: 6.00 Build 0)  -->
<svg version="1.1" id="Capa_1" xmlns="http://www.w3.org/2000/svg" xmlns:xlink="http://www.w3.org/1999/xlink" x="0px" y="0px"
	 viewBox="0 0 469.4 550.6" style="enable-background:new 0 0 469.4 550.6;" xml:space="preserve">
<style type="text/css">
	.st0{fill:#FCC600;stroke:#A96869;stroke-width:28.0427;stroke-linecap:round;stroke-linejoin:round;stroke-miterlimit:10;}
	.st1{opacity:0.5;fill:#FCC600;}
	.st2{fill:none;stroke:#4E1011;stroke-width:28.0427;stroke-linecap:round;stroke-linejoin:round;stroke-miterlimit:10;}
	.st3{fill:#FCC600;stroke:#4E1011;stroke-width:28.0427;stroke-linecap:round;stroke-linejoin:round;stroke-miterlimit:10;}
</style>
<g>
	<g>
		<g>
			<g>
				<path class="st0" d="M426.6,297.2c-6.8-56.6-12-113.2-30.4-167.4c-2.3-6.9-10.7-5.9-14-0.7c-22.9,35.1-44.6,71-65.2,107.6
					c-24.5-50-51.1-99-79.8-146.8c-2.8-4.6-11.2-4.3-13.1,1c-11.7,33.1-23.5,66.2-35.2,99.3c-9.4,26.6-20.7,53.4-27.1,81.1
					c-28-31.8-55.9-63.7-83.9-95.5c-4.3-4.9-12.1-3.9-13.8,2.9c-6.2,25.5-7.4,51.7-7.6,77.8c-0.2,27.7,0.5,55.4,2,83
					c3,55.4,9.4,110.6,18.9,165.2c0.6,3.4,2.6,6.1,6.2,6.9c42.1,9.1,85.4,14.5,128.3,16.4c63,2.7,123.4-11.1,182.9-30.8
					c16.2-5.3,32.3-11,48.1-17.4c0.8-0.3,1.5-0.8,2.1-1.3c1.9-1.3,3.3-3.4,2.9-6.5C440.6,413.7,433.6,355.5,426.6,297.2z M328.3,365
					c-9.6,29.9-30.1,56-55.9,73.8c-1.8,1.2-3.6,1.8-5.4,1.8c-1.7,0.2-3.5-0.1-5.4-1c-15.7-7.5-30.3-17.8-42.4-30.4
					c-20.3-21.1-44-56.4-23.5-84.9c9.8-13.5,27.4-16,42.3-10.3c8.3,3.2,14.8,8.8,20.4,15.4c5.6-9.2,13-17,23.6-21.4
					c15.1-6.2,31.8-1.6,41.5,11.5C333.3,332.8,333.1,350.1,328.3,365z"/>
				<path class="st1" d="M435.5,445.9c-77.8,40.9-183,50.8-259.7,1.6c-39.6-25.4-66.9-65-77.3-110.9c-10.1-44.5-8.5-91.4,0.9-136.3
					c-7.2-8.2-14.4-16.4-21.6-24.6c-4.3-4.9-12.1-3.9-13.8,2.9c-6.2,25.5-7.4,51.7-7.6,77.8c-0.2,27.7,0.5,55.4,2,83
					c3,55.4,9.4,110.6,18.9,165.2c0.6,3.4,2.6,6.1,6.2,6.9c42.1,9.1,85.4,14.5,128.3,16.4c63,2.7,123.4-11.1,182.9-30.8
					c16.2-5.3,32.3-11,48.1-17.4c0.8-0.3,1.5-0.8,2.1-1.3c1.9-1.3,3.3-3.4,2.9-6.5c-1.2-10.3-2.5-20.5-3.7-30.8
					C441.1,442.8,438.4,444.4,435.5,445.9z"/>
				<path class="st2" d="M426.6,297.2c-6.8-56.6-12-113.2-30.4-167.4c-2.3-6.9-10.7-5.9-14-0.7c-22.9,35.1-44.6,71-65.2,107.6
					c-24.5-50-51.1-99-79.8-146.8c-2.8-4.6-11.2-4.3-13.1,1c-11.7,33.1-23.5,66.2-35.2,99.3c-9.4,26.6-20.7,53.4-27.1,81.1
					c-28-31.8-55.9-63.7-83.9-95.5c-4.3-4.9-12.1-3.9-13.8,2.9c-6.2,25.5-7.4,51.7-7.6,77.8c-0.2,27.7,0.5,55.4,2,83
					c3,55.4,9.4,110.6,18.9,165.2c0.6,3.4,2.6,6.1,6.2,6.9c42.1,9.1,85.4,14.5,128.3,16.4c63,2.7,123.4-11.1,182.9-30.8
					c16.2-5.3,32.3-11,48.1-17.4c0.8-0.3,1.5-0.8,2.1-1.3c1.9-1.3,3.3-3.4,2.9-6.5C440.6,413.7,433.6,355.5,426.6,297.2z M328.3,365
					c-9.6,29.9-30.1,56-55.9,73.8c-1.8,1.2-3.6,1.8-5.4,1.8c-1.7,0.2-3.5-0.1-5.4-1c-15.7-7.5-30.3-17.8-42.4-30.4
					c-20.3-21.1-44-56.4-23.5-84.9c9.8-13.5,27.4-16,42.3-10.3c8.3,3.2,14.8,8.8,20.4,15.4c5.6-9.2,13-17,23.6-21.4
					c15.1-6.2,31.8-1.6,41.5,11.5C333.3,332.8,333.1,350.1,328.3,365z"/>
			</g>
			<path class="st3" d="M99.1,131.9c-16.7-29.7-60.3-20.3-72.2,11.9c-10.3,27.9,8.7,60.2,40.7,56c27.9-3.7,43.6-34.5,34.9-60.3
				C101.5,136.7,100.4,134.2,99.1,131.9z"/>
			<path class="st3" d="M264.3,38.3c-16.7-29.7-60.3-20.3-72.2,11.9c-10.3,27.9,8.7,60.2,40.7,56c27.9-3.7,43.6-34.5,34.9-60.3
				C266.7,43.2,265.6,40.6,264.3,38.3z"/>
			<path class="st3" d="M431.6,80.1C415,50.5,371.4,59.9,359.4,92c-10.3,27.9,8.7,60.2,40.7,56c27.9-3.7,43.6-34.5,34.9-60.3
				C434,85,432.9,82.4,431.6,80.1z"/>
		</g>
	</g>
</g>
</svg>
